<svg width="21" height="20" viewBox="0 0 21 20" fill="none" xmlns="http://www.w3.org/2000/svg">
<path d="M20.1857 0.234879C19.8634 -0.078293 19.341 -0.078293 19.0187 0.234879L0.241687 18.4829C-0.0805623 18.7961 -0.0805623 19.3039 0.241687 19.617C0.402792 19.7737 0.614007 19.8519 0.825183 19.8519C1.03636 19.8519 1.24753 19.7736 1.40868 19.617L20.1857 1.36892C20.5079 1.05579 20.5079 0.548051 20.1857 0.234879Z" fill="#C9C9C9"/>
<path d="M20.1856 18.4829L1.4086 0.234879C1.08639 -0.078293 0.563896 -0.078293 0.241687 0.234879C-0.0805623 0.548012 -0.0805623 1.05575 0.241687 1.36892L19.0187 19.617C19.1798 19.7736 19.391 19.8519 19.6022 19.8519C19.8134 19.8519 20.0246 19.7736 20.1857 19.6171C20.5078 19.3039 20.5078 18.7961 20.1856 18.4829Z" fill="#C9C9C9"/>
</svg>
