<svg width="16" height="16" viewBox="0 0 16 16" fill="none" xmlns="http://www.w3.org/2000/svg">
<path fill-rule="evenodd" clip-rule="evenodd" d="M2.34048 2.34048C5.46126 -0.780312 10.5389 -0.780005 13.6594 2.34048C16.7799 5.46096 16.7799 10.5386 13.6594 13.6594C10.5386 16.7802 5.46095 16.7802 2.34048 13.6594C-0.780005 10.5386 -0.780312 5.46126 2.34048 2.34048ZM10.2856 11.1561C10.526 11.3965 10.9158 11.3965 11.1562 11.1561C11.3966 10.9157 11.3966 10.526 11.1562 10.2856L8.87053 7.99994L11.0472 5.82327C11.2876 5.58285 11.2876 5.19314 11.0472 4.95272C10.8068 4.71231 10.4171 4.71231 10.1767 4.95272L7.99998 7.12939L5.71434 4.84375C5.47392 4.60334 5.08421 4.60334 4.84379 4.84375C4.60338 5.08386 4.60338 5.47388 4.84379 5.7143L7.12944 7.99994L4.73513 10.3942C4.49471 10.6347 4.49471 11.0244 4.73513 11.2648C4.97555 11.5052 5.36526 11.5052 5.60567 11.2648L7.99998 8.87049L10.2856 11.1561Z" />
</svg>
