<svg width="80" height="79" viewBox="0 0 80 79" fill="none" xmlns="http://www.w3.org/2000/svg">
<path fill-rule="evenodd" clip-rule="evenodd" d="M0 39.2453C0 17.6045 17.9446 0 40 0C62.0554 0 80 17.6045 80 39.2453C80 60.886 62.0554 78.4906 40 78.4906C17.9446 78.4906 0 60.886 0 39.2453ZM3.07692 39.2453C3.07692 59.2196 19.6415 75.4717 40 75.4717C60.3585 75.4717 76.9231 59.2196 76.9231 39.2453C76.9231 19.2709 60.3585 3.01887 40 3.01887C19.6415 3.01887 3.07692 19.2709 3.07692 39.2453Z" fill="#C9C9C9"/>
<path d="M43.2535 39.4999L52.6006 30.1524C52.8577 29.895 52.9996 29.5517 53 29.1857C53 28.8194 52.8581 28.4757 52.6006 28.2188L51.7815 27.3999C51.524 27.142 51.1807 27.0007 50.8142 27.0007C50.4484 27.0007 50.1051 27.142 49.8476 27.3999L40.5004 36.7469L31.1528 27.3999C30.8957 27.142 30.5522 27.0007 30.186 27.0007C29.8201 27.0007 29.4766 27.142 29.2195 27.3999L28.4 28.2188C27.8667 28.7522 27.8667 29.6196 28.4 30.1524L37.7474 39.4999L28.4 48.8471C28.1427 49.1048 28.001 49.4481 28.001 49.8141C28.001 50.1802 28.1427 50.5235 28.4 50.781L29.2193 51.5999C29.4764 51.8576 29.8201 51.9991 30.1858 51.9991C30.552 51.9991 30.8955 51.8576 31.1526 51.5999L40.5002 42.2528L49.8474 51.5999C50.1049 51.8576 50.4482 51.9991 50.814 51.9991H50.8144C51.1805 51.9991 51.5238 51.8576 51.7813 51.5999L52.6004 50.781C52.8575 50.5237 52.9994 50.1802 52.9994 49.8141C52.9994 49.4481 52.8575 49.1048 52.6004 48.8473L43.2535 39.4999Z" fill="url(#paint0_linear)"/>
<defs>
<linearGradient id="paint0_linear" x1="23.8539" y1="34.1496" x2="38.1511" y2="56.0516" gradientUnits="userSpaceOnUse">
<stop stop-color="#DF6030"/>
<stop offset="1" stop-color="#DC363F"/>
</linearGradient>
</defs>
</svg>
