<svg width="80" height="79" viewBox="0 0 80 79" fill="none" xmlns="http://www.w3.org/2000/svg">
<path fill-rule="evenodd" clip-rule="evenodd" d="M0 39.2453C0 17.6045 17.9446 0 40 0C62.0554 0 80 17.6045 80 39.2453C80 60.886 62.0554 78.4906 40 78.4906C17.9446 78.4906 0 60.886 0 39.2453ZM3.07692 39.2453C3.07692 59.2196 19.6415 75.4717 40 75.4717C60.3585 75.4717 76.9231 59.2196 76.9231 39.2453C76.9231 19.2709 60.3585 3.01887 40 3.01887C19.6415 3.01887 3.07692 19.2709 3.07692 39.2453Z" fill="#C9C9C9"/>
<path d="M58.8493 23.1488L35.2047 49.2469L20.9601 38.0665C20.2986 37.5457 19.3278 37.6529 18.7986 38.302C18.2678 38.954 18.3755 39.9035 19.0386 40.4242L34.4232 52.4997C34.7063 52.7216 35.0463 52.8303 35.3847 52.8303C35.8093 52.8303 36.2324 52.6582 36.5355 52.3231L61.1509 25.1533C61.7155 24.5314 61.6586 23.5759 61.0232 23.0235C60.3863 22.468 59.4155 22.5238 58.8493 23.1488Z" fill="#62B700"/>
</svg>
