<svg width="70" height="70" viewBox="0 0 70 70" fill="none" xmlns="http://www.w3.org/2000/svg">
<path d="M35 70C54.33 70 70 54.33 70 35C70 15.67 54.33 0 35 0C15.67 0 0 15.67 0 35C0 54.33 15.67 70 35 70Z" fill="#29A100"/>
<path d="M54.6905 20.9522C54.4407 20.7021 54.1441 20.5037 53.8176 20.3683C53.4911 20.2329 53.1411 20.1632 52.7877 20.1632C52.4342 20.1632 52.0842 20.2329 51.7577 20.3683C51.4312 20.5037 51.1346 20.7021 50.8849 20.9522L28.5122 43.3283L19.1219 33.9381C18.8722 33.688 18.5756 33.4895 18.2491 33.3542C17.9226 33.2188 17.5726 33.1491 17.2191 33.1491C16.8657 33.1491 16.5157 33.2188 16.1892 33.3542C15.8627 33.4895 15.5661 33.688 15.3163 33.9381C15.0662 34.1878 14.8678 34.4844 14.7324 34.8109C14.597 35.1374 14.5273 35.4874 14.5273 35.8409C14.5273 36.1943 14.597 36.5443 14.7324 36.8708C14.8678 37.1973 15.0662 37.4939 15.3163 37.7437L26.6205 49.0495C26.8704 49.2997 27.1671 49.4982 27.4938 49.6336C27.8204 49.769 28.1705 49.8386 28.5241 49.8386C28.8777 49.8386 29.2278 49.769 29.5545 49.6336C29.8811 49.4982 30.1779 49.2997 30.4278 49.0495C30.491 48.9864 30.549 48.9215 30.5985 48.8532L54.6905 24.7561C54.9403 24.5064 55.1385 24.2099 55.2738 23.8836C55.409 23.5572 55.4786 23.2074 55.4786 22.8542C55.4786 22.5009 55.409 22.1511 55.2738 21.8248C55.1385 21.4984 54.9403 21.2019 54.6905 20.9522Z" fill="white"/>
</svg>
